<svg id="Layer_1" data-name="Layer 1" xmlns="http://www.w3.org/2000/svg" viewBox="0 0 1000 1000"><path d="M532.31,467.31a164.13,164.13,0,0,1,14.91-30.1,180.83,180.83,0,0,1,22.52-29.3A120.81,120.81,0,0,1,595.46,387q13.32-7.9,25.28-7.92h26.79l164-125.56H593.17q-48.7,0-91.89,24.65a290.8,290.8,0,0,0-71.52,57.45l-2.66,2.95s0,0,0,0L304.54,474.89l80.94-221.38H206.87l-179.52,493H205.94l80.93-221.38,88,106.86s.07.09.09.13l4.8,5.82c22.44,26.5,41.49,46.16,69.15,62.53q43.18,25.57,97.41,35.8c36.12,6.84,27.18,10.24,65.18,10.24h56.73L489.64,500Z" style="fill:#ed1c24"/><path d="M593.17,253.51q-48.7,0-91.89,24.65a290.8,290.8,0,0,0-71.52,57.45l-2.66,2.95s0,0,0,0c-.68.77-1.36,1.56-2,2.35a304.73,304.73,0,0,0-52.37,85.58Q353.34,474,353.36,518.6v1.86c0,43.18,1.64,85.26,21.51,111.51,0,0,.07.09.09.13.64.85,1.31,1.67,2,2.49l2.8,3.33c22.44,26.5,41.49,46.16,69.15,62.53q43.18,25.57,97.41,35.8c36.12,6.84,27.18,10.24,65.18,10.24H731a397.57,397.57,0,0,0,61.56-60.92q26.64-33,47.78-64.66H620.74q-15.63,0-32.62-11.15a146.21,146.21,0,0,1-31.24-27.91,157.65,157.65,0,0,1-23.44-36.73q-9.18-20-9.19-37.68,0-14,7.36-38.14c.23-.66.47-1.32.7-2a164.13,164.13,0,0,1,14.91-30.1,180.83,180.83,0,0,1,22.52-29.3A120.81,120.81,0,0,1,595.46,387q13.32-7.9,25.28-7.92H859.63A597.73,597.73,0,0,0,918.9,320q27.08-31.14,53.75-66.5Z" style="fill:#ed1c24"/></svg>